Weeds.S05.DVDRip.XviD-REWARD

Note: im only uploading this i did not rip this all tnx go to REWARD & iNGOT for the extras, if you want to send some tnx my way im not going to stop you :D BTW Upload speed is ~200kb so it might take some time to fully upload so hang in there also if your not going seed after Download plz don't download till more seeds are available also the episodes are available via [url=http://www.google.com/]Google[/url] from the scene
REWARD subpack INFO
[code]  _______________________      __  _____ __________________   
  ______   _   _____/      /  /  _  \______   ______  
   |       _/|    __)_   //   /  /_  |       _/|    | 
   |    |   |        \        /    |        |   |    `  
   |____|_  /_______  / __/  /____|__  /____|_  /_______  /
          /        /       /         /       /        /
 
                        proudly presents..
 
 
           Weeds.S05.SUBPACK.DVDRip.XviD-REWARD
 
    Release Date....: 07-01-2010
 
    Genre ..........: Comedy / Crime / Drama
 
    Source .........: R1 Retail DVD
    Subs ...........: English / spanish [/code]

 
             Play the game and you shall be rewarded!
 
iNGOT weeds S05 Extras
contains:
1. Bloopers
2. Crazy Love: A Guide to the Dysfunctional Relationships in Weeds
3. History of Weed
4. Little Titles
5. Really Backstage with Kevin Nealon
6. University of Andy
7. Yes We Cannabis

Video Info
General
Format                           : AVI
Format/Info                      : Audio Video Interleave
File size                        : 233 MiB
Duration                         : 29mn 5s
Overall bit rate                 : 1 119 Kbps
Writing application              : Nandub v1.0rc2
Writing library                  : Nandub build 1853/release


Video
ID                               : 0
Format                           : MPEG-4 Visual
Format profile                   : AdvancedSimple@L5
Format settings, BVOP            : Yes
Format settings, QPel            : No
Format settings, GMC             : No warppoints
Format settings, Matrix          : Default (H.263)
Muxing mode                      : Packed bitstream
Codec ID                         : XVID
Codec ID/Hint                    : XviD
Duration                         : 29mn 5s
Bit rate                         : 972 Kbps
Width                            : 624 pixels
Height                           : 352 pixels
Display aspect ratio             : 16:9
Frame rate                       : 23.976 fps
Resolution                       : 24 bits
Colorimetry                      : 4:2:0
Scan type                        : Progressive
Bits/(Pixel*Frame)               : 0.185
Stream size                      : 202 MiB (87%)
Writing library                  : XviD 1.3.0.dev55


Audio
ID                               : 1
Format                           : MPEG Audio
Format version                   : Version 1
Format profile                   : Layer 3
Codec ID                         : 55
Codec ID/Hint                    : MP3
Duration                         : 29mn 5s
Bit rate mode                    : Constant
Bit rate                         : 32.0 Kbps
Channel(s)                       : 2 channels
Sampling rate                    : 48.0 KHz
Resolution                       : 16 bits
Video delay                      : 8ms
Stream size                      : 28.0 MiB (12%)
Alignment                        : Aligned on interleaves
Interleave, duration             : 24 ms (0.58 video frame)
Interleave, preload duration     : 136 ms

[url=http://i152.photobucket.com/albums/s195/king0fkingsjefe/weedss05e01dvdripxvid-reward_preview.png/]Screens[/url]




[url=http://www.imdb.com/title/tt0439100/]IMDb[/url]

